<?xml version="1.0" encoding="UTF-8" standalone="no"?>
<svg width="90px" height="128px" viewBox="0 0 90 128" version="1.1" xmlns="http://www.w3.org/2000/svg" xmlns:xlink="http://www.w3.org/1999/xlink">
    <!-- Generator: Sketch 42 (36781) - http://www.bohemiancoding.com/sketch -->
    <title>Artboard</title>
    <desc>Created with Sketch.</desc>
    <defs></defs>
    <g id="Page-1" stroke="none" stroke-width="1" fill="none" fill-rule="evenodd">
        <g id="Artboard" fill-rule="nonzero" fill="#138078">
            <g id="Group">
                <path d="M45,0 C20.180669,0 0,18.5446659 0,41.2764095 C0,51.4849657 5.71700172,60.1066028 10.8135776,67.5873295 C15.9101534,75.0680844 20.1724293,81.594588 20.1724138,86.1727931 C20.1708621,91.487643 20.1724138,96.8956318 20.1724138,102.241951 C20.1724138,106.057546 21.3539121,109.72059 24.1971983,112.263002 C25.7186793,113.623537 27.5804534,114.563394 29.6282328,115.13253 C30.7771914,121.823861 37.2711569,127.007752 45,127.007752 C52.7288431,127.007752 59.2713,121.823861 60.4202586,115.13253 C62.4695276,114.55281 64.3297655,113.590233 65.8512931,112.218831 C68.67225,109.676419 69.8275862,106.057546 69.8275862,102.241951 C69.8276017,96.8977486 69.8275862,91.4928644 69.8275862,86.1727931 C69.8275552,81.5947291 74.1385397,75.0697779 79.2349138,67.5873295 C84.3312879,60.1050082 90,51.4787282 90,41.2764095 C90,18.5446659 69.819331,0 45,0 Z M45,8.47601567 C64.7439207,8.47601567 80.6896552,23.0859964 80.6896552,41.2764095 C80.6896552,48.5014555 76.3204966,55.7587897 71.330819,63.0844824 C67.1959862,69.1551693 62.6810586,75.2060995 61.1961207,81.9348276 L54.2133621,81.9348276 C55.5441983,73.9749713 56.7624103,65.4754733 57.9956897,57.7428197 C60.9870724,57.6887709 63.3165828,56.9781486 65.4148707,55.5355243 C66.1691793,54.8220513 66.7241379,53.668666 66.7241379,52.5336121 C66.7241379,50.9229848 66.5226466,47.9053236 63.9116379,45.646844 C60.5110034,43.5125075 57.3154914,44.273072 54.6012931,46.1765932 C53.1025759,47.8512042 52.9851103,49.6830507 52.7102069,51.6948389 C51.7019276,51.5707947 50.2611207,51.5668434 49.7522328,51.4299573 C51.7384397,49.4453628 53.6885379,46.8554636 53.7285259,44.4990611 C53.3890086,40.2610533 49.606681,36.6671298 44.8061121,36.7293777 C40.2963362,36.6671439 36.3200431,40.2610533 36.3201207,44.4990611 C36.56025,47.4055905 38.4106034,49.5024598 40.2479224,51.4741136 C39.4358897,51.7427632 38.4079966,51.9250475 37.4354224,52.0921473 C37.3088017,49.8894241 36.6168724,47.9909833 35.4472759,46.1765932 C32.8022379,43.9467045 28.224931,43.9338485 26.136931,45.646844 C23.5259379,47.9053236 23.2759397,50.9229848 23.2759397,52.5336121 C23.2759397,54.5398119 24.9031086,56.1661741 26.4278793,56.9040466 C28.4041862,57.7618991 30.2117121,57.9904989 32.1013707,58.0959859 C33.3728379,65.7881946 34.6785672,74.1217358 35.8836983,81.9348276 C33.5203138,81.9348276 30.9115086,81.9178932 28.8039569,81.9348276 C27.3178552,75.2086397 22.8514966,69.1520647 18.71775,63.0844824 C13.7283207,55.760963 9.31042241,48.5103178 9.31042241,41.2764095 C9.31034483,24.0153683 24.8275862,8.47601567 45,8.47601567 Z M45,42.4683487 C46.5517241,42.4683487 47.5215517,43.0863824 47.5215517,44.4990611 C47.5215517,45.9117257 46.0033448,46.8360315 45.0484914,47.8541395 C43.9381862,46.9599628 42.5269397,45.9117257 42.5269397,44.4990611 C42.5269397,43.0863824 43.4482759,42.4683487 45,42.4683487 Z M30.8405172,50.0172927 C30.9596897,50.6390378 31.0596362,51.651995 31.1799569,52.3128726 C30.4793845,52.1980012 29.7619448,52.0788397 29.4827586,51.9597065 C29.5969655,50.389383 29.8923207,50.3408943 30.8405172,50.0172927 Z M59.7413793,49.8407096 C60.4607897,50.500289 60.5238828,50.9632462 60.5172414,51.6948389 C60.2042586,51.791647 59.5022897,51.8344063 58.9170259,51.9155642 C58.7165276,50.8800844 59.4102414,50.3403157 59.7413793,49.8407096 Z M45.0484914,55.5796806 C46.9464052,56.8918115 49.68045,57.2718751 51.7888707,57.5220239 C50.5298948,65.4847872 49.2885621,74.0744607 47.9580517,81.890516 C45.9282103,81.890516 44.1613552,81.8913627 42.1390862,81.890516 C40.9307586,74.0671225 39.6122741,65.5861112 38.3082672,57.6544647 C40.7732121,57.1045918 43.2889759,56.6155556 45.0484914,55.5796806 Z M29.4827586,90.3665881 C38.6870431,90.3059067 50.9546017,90.3891673 60.5172414,90.4103352 L60.5172414,94.6484419 L29.4827586,94.6484419 L29.4827586,90.3665881 Z M29.5311724,103.124796 L60.4686724,103.124796 C60.2079517,106.505601 57.426781,107.342017 54.8436724,107.362762 L35.3016466,107.362762 C31.6493069,107.409331 29.7731172,105.785185 29.5311724,103.124796 Z" id="Shape"></path>
            </g>
        </g>
    </g>
</svg>