<?xml version="1.0" encoding="UTF-8" standalone="no"?>
<svg width="128px" height="128px" viewBox="0 0 128 128" version="1.1" xmlns="http://www.w3.org/2000/svg" xmlns:xlink="http://www.w3.org/1999/xlink">
    <!-- Generator: Sketch 42 (36781) - http://www.bohemiancoding.com/sketch -->
    <title>Artboard</title>
    <desc>Created with Sketch.</desc>
    <defs></defs>
    <g id="Page-1" stroke="none" stroke-width="1" fill="none" fill-rule="evenodd">
        <g id="Artboard" fill-rule="nonzero" fill="#138078">
            <g id="Group" transform="translate(23.000000, 0.000000)">
                <path d="M41.2444353,0.359372403 C18.496451,0.359372403 0,18.9040383 0,41.6357819 C0,51.8443381 5.23987795,60.4659752 9.91110891,67.9467019 C14.5823399,75.4274568 18.488899,81.9539604 18.4888848,86.5321655 C18.4874626,91.8470154 18.4888848,97.2550042 18.4888848,102.601324 C18.4888848,106.416918 19.5717788,110.079962 22.1777728,112.622374 C23.5722757,113.982909 25.2786717,114.922766 27.1555495,115.491902 C28.2086195,122.183234 34.1606182,127.367124 41.2444353,127.367124 C48.3282524,127.367124 54.3246955,122.183234 55.3777655,115.491902 C57.2560086,114.912182 58.9609967,113.949605 60.3555421,112.578204 C62.9410705,110.035791 63.9999858,106.416918 63.9999858,102.601324 C64,97.257121 63.9999858,91.8522368 63.9999858,86.5321655 C63.9999573,81.9541015 67.95116,75.4291503 72.6222061,67.9467019 C77.2932522,60.4643806 82.4888706,51.8381006 82.4888706,41.6357819 C82.4888706,18.9040383 63.9924196,0.359372403 41.2444353,0.359372403 Z M41.2444353,8.83538808 C59.3405877,8.83538808 73.9555391,23.4453688 73.9555391,41.6357819 C73.9555391,48.8608279 69.9510173,56.1181621 65.3777632,63.4438548 C61.5880112,69.5145417 57.4498859,75.5654719 56.0888764,82.2942 L49.6888778,82.2942 C50.9086465,74.3343437 52.0251902,65.8348457 53.1555437,58.1021921 C55.8972747,58.0481433 58.0323711,57.337521 59.9555422,55.8948967 C60.6468985,55.1814237 61.155542,54.0280384 61.155542,52.8929845 C61.155542,51.2823572 60.9708665,48.264696 58.5777648,46.0062164 C55.460937,43.8718799 52.5321128,44.6324444 50.0444333,46.5359656 C48.6707945,48.2105766 48.5631323,50.0424231 48.3111715,52.0542113 C47.3870401,51.9301671 46.0664787,51.9262158 45.600061,51.7893297 C47.420505,49.8047352 49.207854,47.214836 49.2445046,44.8584335 C48.9333225,40.6204257 45.4666566,37.0265022 41.0667287,37.0887501 C36.9333251,37.0265164 33.2888815,40.6204257 33.2889526,44.8584335 C33.5090414,47.7649629 35.20497,49.8618322 36.8889518,51.833486 C36.1446889,52.1021356 35.2025806,52.2844199 34.3111746,52.4515197 C34.1951213,50.2487965 33.5609383,48.3503557 32.4889528,46.5359656 C30.0646618,44.3060769 25.8693631,44.2932209 23.9556213,46.0062164 C21.5625339,48.264696 21.3333997,51.2823572 21.3333997,52.8929845 C21.3333997,54.8991844 22.82477,56.5255465 24.222288,57.263419 C26.0336582,58.1212715 27.6903334,58.3498713 29.4222868,58.4553583 C30.5876412,66.147567 31.7843983,74.4811082 32.8889527,82.2942 C30.7228092,82.2942 28.331727,82.2772656 26.4000652,82.2942 C25.0379891,75.5680121 20.9443793,69.5114371 17.1556229,63.4438548 C12.5825963,56.1203354 8.53340255,48.8696902 8.53340255,41.6357819 C8.53333144,24.3747407 22.7555505,8.83538808 41.2444353,8.83538808 Z M41.2444353,42.8277211 C42.6666572,42.8277211 43.5555459,43.4457548 43.5555459,44.8584335 C43.5555459,46.2710981 42.164044,47.1954039 41.2888797,48.2135119 C40.2712373,47.3193352 38.9777691,46.2710981 38.9777691,44.8584335 C38.9777691,43.4457548 39.8222134,42.8277211 41.2444353,42.8277211 Z M28.2666604,50.3766651 C28.375887,50.9984102 28.4674923,52.0113674 28.5777714,52.672245 C27.9356667,52.5573736 27.2781024,52.4382121 27.0222162,52.3190789 C27.1268917,50.7487554 27.3975975,50.7002667 28.2666604,50.3766651 Z M54.7555434,50.200082 C55.4149139,50.8596614 55.4727415,51.3226186 55.4666543,52.0542113 C55.1797922,52.1510195 54.5364074,52.1937787 53.999988,52.2749367 C53.8162227,51.2394568 54.4520412,50.6996881 54.7555434,50.200082 Z M41.2888797,55.939053 C43.0283993,57.2511839 45.534269,57.6312475 47.4667272,57.8813963 C46.3128217,65.8441596 45.1750868,74.4338331 43.9556169,82.2498884 C42.09518,82.2498884 40.4757812,82.2507351 38.6222848,82.2498884 C37.5148006,74.4264949 36.3063528,65.9454836 35.1111744,58.0138371 C37.3704024,57.4639642 39.6762081,56.974928 41.2888797,55.939053 Z M27.0222162,90.7259605 C35.4583388,90.6652791 46.7020838,90.7485397 55.4666543,90.7697076 L55.4666543,95.0078143 L27.0222162,95.0078143 L27.0222162,90.7259605 Z M27.0665895,103.484169 L55.4221388,103.484169 C55.1831771,106.864973 52.6341145,107.70139 50.2665844,107.722134 L32.3554773,107.722134 C29.0079509,107.768704 27.2883424,106.144557 27.0665895,103.484169 Z" id="Shape"></path>
            </g>
        </g>
    </g>
</svg>